# xmcd
#
# Track frame offsets: 
#        150
#        11140
#        31633
#        47091
#        63417
#        78148
#        98229
#        127611
#        135434
#        158889
#        173163
#        189679
#        206164
#        228043
#
# Disc length: 3166 seconds
#
# Revision: 0
# Processed by: cddbd v1.5.2PL0 Copyright (c) Steve Scherf et al.
# Submitted via: ExactAudioCopy v0.99pb5
#
DISCID=a70c5c0e
DTITLE=Ross Neilsen - Early Grave
DYEAR=2007
DGENRE=Blues
TTITLE0=Early Grave
TTITLE1=Walk in The Sun
TTITLE2=Don't Need Love
TTITLE3=Yonderwall
TTITLE4=Call Me Gone
TTITLE5=Let You Down
TTITLE6=How I Could Change
TTITLE7=Early Grave (Eulogy)
TTITLE8=Anyway I Can
TTITLE9=Texas
TTITLE10=Back For More
TTITLE11=Jelly Bean
TTITLE12=Spirit In The Sky
TTITLE13=Early Grave (Committal)
EXTD=
EXTT0=
EXTT1=
EXTT2=
EXTT3=
EXTT4=
EXTT5=
EXTT6=
EXTT7=
EXTT8=
EXTT9=
EXTT10=
EXTT11=
EXTT12=
EXTT13=
PLAYORDER=
